<?xml version="1.0" encoding="utf-8"?>
<!-- Generator: Adobe Illustrator 23.0.6, SVG Export Plug-In . SVG Version: 6.00 Build 0)  -->
<svg version="1.1" id="Lag_1" xmlns="http://www.w3.org/2000/svg" xmlns:xlink="http://www.w3.org/1999/xlink" x="0px" y="0px"
	 viewBox="0 0 116 115" style="enable-background:new 0 0 116 115;" xml:space="preserve">
<style type="text/css">
	.st0{fill:#A980AC;}
	.st1{fill:none;stroke:#BCB9B8;stroke-width:2;stroke-miterlimit:10;}
</style>
<rect class="st0" width="116" height="115"/>
<g>
	<path class="st1" d="M104.3,33.3l-4-0.1l-0.1-2.8H65.7v13.6l1.7,5.1l4.5,4.7h22.2l3-2.8l1.5-2.3l7.5-2.7l1.5-2.3v-6.9L104.3,33.3z
		 M104.5,42.5l-1,1.2l-3.3,1.2v-8.4h2.9l1.3,1.4V42.5z"/>
	<polygon class="st1" points="81.2,26.1 84.5,26.1 84.5,22.5 96.9,22.5 96.9,16.2 93.8,16.2 93.8,19 81.2,19 	"/>
	<polygon class="st1" points="78.3,15.7 90.6,15.7 90.6,9.4 87.6,9.4 87.6,12.2 75,12.2 75,19.3 78.3,19.3 	"/>
</g>
<g>
	<path class="st1" d="M46.7,33.3l-4-0.1l-0.1-2.8H8.2v13.6L9.9,49l4.5,4.7h22.2l3-2.8l1.5-2.3l7.5-2.7l1.5-2.3v-6.9L46.7,33.3z
		 M47,42.5l-1,1.2l-3.3,1.2v-8.4h2.9l1.3,1.4V42.5z"/>
	<polygon class="st1" points="23.7,26.1 27,26.1 27,22.5 39.3,22.5 39.3,16.2 36.3,16.2 36.3,19 23.7,19 	"/>
	<polygon class="st1" points="20.8,15.7 33.1,15.7 33.1,9.4 30.1,9.4 30.1,12.2 17.5,12.2 17.5,19.3 20.8,19.3 	"/>
</g>
<g>
	<path class="st1" d="M75.6,82.5l-4-0.1l-0.1-2.8H37.1v13.6l1.7,5.1l4.5,4.7h22.2l3-2.8l1.5-2.3l7.5-2.7l1.5-2.3V86L75.6,82.5z
		 M75.8,91.7l-1,1.2l-3.3,1.2v-8.4h2.9l1.3,1.4V91.7z"/>
	<polygon class="st1" points="52.5,75.3 55.8,75.3 55.8,71.7 68.2,71.7 68.2,65.4 65.2,65.4 65.2,68.2 52.5,68.2 	"/>
	<polygon class="st1" points="49.6,64.9 62,64.9 62,58.6 58.9,58.6 58.9,61.4 46.3,61.4 46.3,68.5 49.6,68.5 	"/>
</g>
</svg>
