<?xml version="1.0" encoding="utf-8"?>
<!-- Generator: Adobe Illustrator 23.0.6, SVG Export Plug-In . SVG Version: 6.00 Build 0)  -->
<svg version="1.1" id="Lag_1" xmlns="http://www.w3.org/2000/svg" xmlns:xlink="http://www.w3.org/1999/xlink" x="0px" y="0px"
	 viewBox="0 0 116 115" style="enable-background:new 0 0 116 115;" xml:space="preserve">
<style type="text/css">
	.st0{fill:#D47248;}
	.st1{fill:none;stroke:#BCB9B8;stroke-width:2;stroke-miterlimit:10;}
</style>
<rect class="st0" width="116" height="115"/>
<g>
	<path class="st1" d="M51.8,59.2l-4-0.1l-0.1-2.8H13.3v13.6l1.7,5.1l4.5,4.7h22.2l3-2.8l1.5-2.3l7.5-2.7l1.5-2.3v-6.9L51.8,59.2z
		 M52.1,68.4l-1,1.2l-3.3,1.2v-8.4h2.9l1.3,1.4V68.4z"/>
	<polygon class="st1" points="28.8,52 32.1,52 32.1,48.4 44.4,48.4 44.4,42.1 41.4,42.1 41.4,44.9 28.8,44.9 	"/>
	<polygon class="st1" points="25.8,41.6 38.2,41.6 38.2,35.3 35.2,35.3 35.2,38.1 22.5,38.1 22.5,45.2 25.8,45.2 	"/>
</g>
<g>
	<path class="st1" d="M100.6,59.2l-4-0.1l-0.1-2.8H62.1v13.6l1.7,5.1l4.5,4.7h22.2l3-2.8l1.5-2.3l7.5-2.7l1.5-2.3v-6.9L100.6,59.2z
		 M100.8,68.4l-1,1.2l-3.3,1.2v-8.4h2.9l1.3,1.4V68.4z"/>
	<polygon class="st1" points="77.5,52 80.8,52 80.8,48.4 93.2,48.4 93.2,42.1 90.2,42.1 90.2,44.9 77.5,44.9 	"/>
	<polygon class="st1" points="74.6,41.6 87,41.6 87,35.3 83.9,35.3 83.9,38.1 71.3,38.1 71.3,45.2 74.6,45.2 	"/>
</g>
</svg>
